<?xml version='1.0' encoding='utf-8'?>
<!DOCTYPE svg PUBLIC '-//W3C//DTD SVG 1.1//EN' 'http://www.w3.org/Graphics/SVG/1.1/DTD/svg11.dtd'>
<svg version="1.1" xmlns="http://www.w3.org/2000/svg" viewBox="0 0 512 512" xmlns:xlink="http://www.w3.org/1999/xlink" enable-background="new 0 0 512 512">
  <g>
    <g>
      <path d="m489.8,280.8l-213.2-136.8v-36.5c0-11.1-8.8-20.1-19.8-20.4-9.7-0.3-17.1-8.4-17.1-18.1 0-9.5 7.4-17.1 18-17.1 7.1,0 13.3,4.6 15.9,11.2 4.1,10.5 15.9,15.7 26.4,11.6 10.5-4.1 15.7-15.9 11.6-26.4-8.5-22.1-29.2-37.3-52.7-37.3-39.4,0-60,26.3-60,56.8 0,25.2 14.7,47.2 36.9,56v19.9l-215.3,138.1c-7.6,4.9-11.1,14.2-8.6,22.9 2.6,8.7 10.5,14.7 19.6,14.7h75.4v161.1c0,11.3 9.1,20.4 20.4,20.4h260.4c11.3,0 20.4-9.1 20.4-20.4v-161.1h72.4c0.1,0 0.1,0 0.2,0 11.3,0 20.4-9.1 20.4-20.4 5.68434e-14-8-4.6-14.9-11.3-18.2zm-122.5,179.4h-219.6v-140.8h219.6v140.8zm-266.2-181.6l154.9-99.3 154.8,99.3h-309.7z"/>
    </g>
  </g>
</svg>
